<svg width="40" height="56" viewBox="0 0 40 56" fill="none" xmlns="http://www.w3.org/2000/svg">
<path d="M8.68532 28.2843C5.68473 25.1771 3.99902 20.9628 3.99902 16.5685C3.99902 12.1743 5.68473 7.96002 8.68532 4.85281C11.6859 1.74561 15.7556 0 19.999 0C24.2425 0 28.3122 1.74561 31.3127 4.85281C34.3133 7.96002 35.999 12.1743 35.999 16.5685C35.999 20.9628 34.3133 25.1771 31.3127 28.2843L19.999 40L8.68532 28.2843Z" fill="#28AAE1"/>
<path d="M28 8L10 15.53V16.51L16.84 19.16L19.48 26H20.46L28 8Z" fill="white"/>
<circle cx="6" cy="6" r="5" transform="matrix(1 -0.000857298 0.000834821 1 14 42.0103)" fill="white" stroke="#28AAE1" stroke-width="2"/>
<circle cx="3" cy="3" r="3" transform="matrix(1 -0.000857298 0.000834821 1 16.9922 44.9976)" fill="#28AAE1"/>
</svg>
