<svg width="40" height="56" viewBox="0 0 40 56" fill="none" xmlns="http://www.w3.org/2000/svg">
<path d="M8.68532 28.2843C5.68473 25.1771 3.99902 20.9628 3.99902 16.5685C3.99902 12.1743 5.68473 7.96002 8.68532 4.85281C11.6859 1.74561 15.7556 0 19.999 0C24.2425 0 28.3122 1.74561 31.3127 4.85281C34.3133 7.96002 35.999 12.1743 35.999 16.5685C35.999 20.9628 34.3133 25.1771 31.3127 28.2843L19.999 40L8.68532 28.2843Z" fill="#02A750"/>
<path d="M20 6C16.13 6 13 9.13 13 13C13 18.25 20 26 20 26C20 26 27 18.25 27 13C27 9.13 23.87 6 20 6ZM20 15.5C18.62 15.5 17.5 14.38 17.5 13C17.5 11.62 18.62 10.5 20 10.5C21.38 10.5 22.5 11.62 22.5 13C22.5 14.38 21.38 15.5 20 15.5Z" fill="white"/>
<circle cx="6" cy="6" r="5" transform="matrix(1 -0.000857298 0.000834821 1 14 42.0103)" fill="white" stroke="#02A750" stroke-width="2"/>
<circle cx="3" cy="3" r="3" transform="matrix(1 -0.000857298 0.000834821 1 16.9922 44.9976)" fill="#02A750"/>
</svg>
