<svg width="52" height="52" viewBox="0 0 52 52" fill="none" xmlns="http://www.w3.org/2000/svg">
<path d="M13.143 35.4266C9.39229 31.6758 7.28516 26.5888 7.28516 21.2844C7.28516 15.9801 9.39229 10.893 13.143 7.14229C16.8937 3.39156 21.9808 1.28442 27.2852 1.28442C32.5895 1.28442 37.6766 3.39156 41.4273 7.14229C45.178 10.893 47.2852 15.9801 47.2852 21.2844C47.2852 26.5888 45.178 31.6758 41.4273 35.4266L27.2852 49.5687L13.143 35.4266Z" fill="#28AAE1"/>
<path d="M32.4545 27.1818C33.2091 27.1818 33.8182 26.5727 33.8182 25.8182C33.8182 25.0636 33.2091 24.4545 32.4545 24.4545C31.7 24.4545 31.0909 25.0636 31.0909 25.8182C31.0909 26.5727 31.7 27.1818 32.4545 27.1818ZM33.8182 19H31.5455V21.2727H35.6L33.8182 19ZM21.5455 27.1818C22.3 27.1818 22.9091 26.5727 22.9091 25.8182C22.9091 25.0636 22.3 24.4545 21.5455 24.4545C20.7909 24.4545 20.1818 25.0636 20.1818 25.8182C20.1818 26.5727 20.7909 27.1818 21.5455 27.1818ZM34.2727 17.6364L37 21.2727V25.8182H35.1818C35.1818 27.3273 33.9636 28.5455 32.4545 28.5455C30.9455 28.5455 29.7273 27.3273 29.7273 25.8182H24.2727C24.2727 27.3273 23.0545 28.5455 21.5455 28.5455C20.0364 28.5455 18.8182 27.3273 18.8182 25.8182H17V15.8182C17 14.8091 17.8091 14 18.8182 14H31.5455V17.6364H34.2727ZM18.8182 15.8182V24H19.5091C20.0091 23.4455 20.7364 23.0909 21.5455 23.0909C22.3545 23.0909 23.0818 23.4455 23.5818 24H29.7273V15.8182H18.8182Z" fill="white"/>
</svg>
