<svg width="61" height="69" viewBox="0 0 61 69" fill="none" xmlns="http://www.w3.org/2000/svg">
<g filter="url(#filter0_d_1141_22275)">
<path d="M16.143 41.4266C12.3923 37.6758 10.2852 32.5888 10.2852 27.2844C10.2852 21.9801 12.3923 16.893 16.143 13.1423C19.8937 9.39156 24.9808 7.28442 30.2852 7.28442C35.5895 7.28442 40.6766 9.39156 44.4273 13.1423C48.178 16.893 50.2852 21.9801 50.2852 27.2844C50.2852 32.5888 48.178 37.6758 44.4273 41.4266L30.2852 55.5687L16.143 41.4266Z" fill="#EFF8FF"/>
</g>
<path d="M35.4545 33.1818C36.2091 33.1818 36.8182 32.5727 36.8182 31.8182C36.8182 31.0636 36.2091 30.4545 35.4545 30.4545C34.7 30.4545 34.0909 31.0636 34.0909 31.8182C34.0909 32.5727 34.7 33.1818 35.4545 33.1818ZM36.8182 25H34.5455V27.2727H38.6L36.8182 25ZM24.5455 33.1818C25.3 33.1818 25.9091 32.5727 25.9091 31.8182C25.9091 31.0636 25.3 30.4545 24.5455 30.4545C23.7909 30.4545 23.1818 31.0636 23.1818 31.8182C23.1818 32.5727 23.7909 33.1818 24.5455 33.1818ZM37.2727 23.6364L40 27.2727V31.8182H38.1818C38.1818 33.3273 36.9636 34.5455 35.4545 34.5455C33.9455 34.5455 32.7273 33.3273 32.7273 31.8182H27.2727C27.2727 33.3273 26.0545 34.5455 24.5455 34.5455C23.0364 34.5455 21.8182 33.3273 21.8182 31.8182H20V21.8182C20 20.8091 20.8091 20 21.8182 20H34.5455V23.6364H37.2727ZM21.8182 21.8182V30H22.5091C23.0091 29.4455 23.7364 29.0909 24.5455 29.0909C25.3545 29.0909 26.0818 29.4455 26.5818 30H32.7273V21.8182H21.8182Z" fill="#28AAE1"/>
<defs>
<filter id="filter0_d_1141_22275" x="0.285156" y="0.284424" width="60" height="68.2842" filterUnits="userSpaceOnUse" color-interpolation-filters="sRGB">
<feFlood flood-opacity="0" result="BackgroundImageFix"/>
<feColorMatrix in="SourceAlpha" type="matrix" values="0 0 0 0 0 0 0 0 0 0 0 0 0 0 0 0 0 0 127 0" result="hardAlpha"/>
<feOffset dy="3"/>
<feGaussianBlur stdDeviation="5"/>
<feComposite in2="hardAlpha" operator="out"/>
<feColorMatrix type="matrix" values="0 0 0 0 0.0823529 0 0 0 0 0.431373 0 0 0 0 0.737255 0 0 0 0.388 0"/>
<feBlend mode="normal" in2="BackgroundImageFix" result="effect1_dropShadow_1141_22275"/>
<feBlend mode="normal" in="SourceGraphic" in2="effect1_dropShadow_1141_22275" result="shape"/>
</filter>
</defs>
</svg>
