<svg width="17" height="17" viewBox="0 0 17 17" fill="none" xmlns="http://www.w3.org/2000/svg">
<g id="lock_black_24dp 2" clip-path="url(#clip0_2975_3157)">
<path id="Vector" d="M12.7499 5.66683H12.0416V4.25016C12.0416 2.29516 10.4549 0.708496 8.49992 0.708496C6.54492 0.708496 4.95825 2.29516 4.95825 4.25016V5.66683H4.24992C3.47075 5.66683 2.83325 6.30433 2.83325 7.0835V14.1668C2.83325 14.946 3.47075 15.5835 4.24992 15.5835H12.7499C13.5291 15.5835 14.1666 14.946 14.1666 14.1668V7.0835C14.1666 6.30433 13.5291 5.66683 12.7499 5.66683ZM6.37492 4.25016C6.37492 3.07433 7.32408 2.12516 8.49992 2.12516C9.67575 2.12516 10.6249 3.07433 10.6249 4.25016V5.66683H6.37492V4.25016ZM12.7499 14.1668H4.24992V7.0835H12.7499V14.1668ZM8.49992 12.0418C9.27908 12.0418 9.91658 11.4043 9.91658 10.6252C9.91658 9.846 9.27908 9.2085 8.49992 9.2085C7.72075 9.2085 7.08325 9.846 7.08325 10.6252C7.08325 11.4043 7.72075 12.0418 8.49992 12.0418Z" fill="#191919"/>
</g>
<defs>
<clipPath id="clip0_2975_3157">
<rect width="17" height="17" fill="white"/>
</clipPath>
</defs>
</svg>
