<svg width="17" height="21" viewBox="0 0 17 21" fill="none" xmlns="http://www.w3.org/2000/svg">
<path d="M8.5 10.9153C7.4 10.9153 6.5 10.0216 6.5 8.92938C6.5 7.83715 7.4 6.9435 8.5 6.9435C9.6 6.9435 10.5 7.83715 10.5 8.92938C10.5 10.0216 9.6 10.9153 8.5 10.9153ZM14.5 9.12797C14.5 5.5236 11.85 2.97175 8.5 2.97175C5.15 2.97175 2.5 5.5236 2.5 9.12797C2.5 11.4514 4.45 14.5296 8.5 18.2034C12.55 14.5296 14.5 11.4514 14.5 9.12797ZM8.5 0.98587C12.7 0.98587 16.5 4.18313 16.5 9.12797C16.5 12.4245 13.83 16.3268 8.5 20.8447C3.17 16.3268 0.5 12.4245 0.5 9.12797C0.5 4.18313 4.3 0.98587 8.5 0.98587Z" fill="#28AAE1"/>
</svg>
